<svg width="400" height="4" viewBox="0 0 400 4" fill="none" xmlns="http://www.w3.org/2000/svg">
<path fill-rule="evenodd" clip-rule="evenodd" d="M47.6725 0.0902079C48.2286 0.0701617 48.1327 0.330762 48.382 0.441016C48.5162 0.380878 48.9189 0.441016 48.7847 0.270624C49.1682 0.220508 49.0723 0.380878 49.3983 0.360832C49.4175 0.441016 49.2833 0.451039 49.3025 0.531224C49.9736 0.55127 50.6256 0.471086 51.2393 0.270624C51.1434 0.601386 52.2556 0.501155 52.6775 0.661525C53.1761 0.571317 53.1761 0.260601 53.8089 0.220508C53.7514 0.451039 54.3267 0.410947 54.5184 0.521201C54.6527 0.511178 54.5951 0.410947 54.6143 0.350808C54.9211 0.400924 54.6335 0.611409 55.3238 0.571317C55.343 0.71164 55.228 0.902079 55.6307 0.87201C56.0334 0.801848 55.5731 0.631455 55.8416 0.521201C55.9567 0.531224 56.0142 0.511178 56.0525 0.481109C56.2635 0.491132 56.2635 0.601386 56.3594 0.651501C56.6278 0.511178 57.2415 0.531224 57.1839 0.260601C57.6825 0.320739 58.277 0.350809 58.3154 0.611409C59.1591 0.631455 59.6577 0.340785 60.4631 0.481109C60.4631 0.55127 60.4631 0.621432 60.4631 0.701617C60.5398 0.761756 60.674 0.781802 60.8658 0.791825C61.211 0.561294 61.4795 0.300693 62.0931 0.180416C62.0931 0.280647 62.0931 0.380878 62.0931 0.491132C62.4191 0.471086 62.515 0.350808 62.9177 0.360832C62.63 0.230531 63.1478 0.200462 63.2245 0.100231C63.6847 0.0902079 63.8765 0.200462 63.8382 0.410947C64.5285 0.441016 63.9532 0.180416 64.4518 0.100231C64.7011 0.110254 68.8432 1.00231 68.6514 0.87201C69.1308 0.791825 68.8432 0.380878 69.2651 0.170393C70.5882 0.360832 71.9114 0.360832 73.2538 0.170393C73.9633 0.180416 73.7332 0.571317 74.1742 0.691594C74.7879 0.661525 75.1906 0.721663 75.4974 0.821894C75.6891 0.741709 75.4399 0.741709 75.4974 0.601386C75.0755 0.531224 74.9988 0.380878 74.5769 0.511178C74.4235 0.42097 74.5002 0.220508 74.366 0.120277C74.8454 0.200462 74.9796 0.170393 75.6892 0.16037C75.7659 0.280647 75.996 0.320739 76.2069 0.380878C76.1877 0.471086 75.9384 0.471086 75.9001 0.55127C75.996 0.611409 76.0535 0.691594 76.3028 0.681571C76.3603 0.250577 77.3767 0.280647 78.0478 0.330762C78.1437 0.42097 78.3547 0.461063 78.3547 0.591363C78.1054 0.731686 77.3575 0.661525 77.3383 0.892056C77.6835 0.982264 78.9875 0.952194 78.8724 0.501155C79.4861 0.360832 80.1381 0.441016 80.9051 0.501155C81.0777 0.591363 80.9051 0.561294 80.9051 0.671548C81.3845 0.701617 81.3845 0.521201 81.5188 0.410947C82.2091 0.350808 82.8611 0.410947 83.4556 0.58134C83.3789 0.831917 83.6857 0.922125 83.8583 1.06245C84.0884 1.05243 84.2802 1.01233 84.4719 0.972241C84.3952 0.87201 84.1076 0.861987 83.9542 0.801848C84.1843 0.55127 84.6062 0.390901 85.1814 0.190439C85.4307 0.390901 85.7184 0.571317 86.006 0.761756C86.4087 0.771779 86.3896 0.601386 86.8306 0.631455C86.8306 0.561294 86.8306 0.491132 86.8306 0.410947C88.0579 0.821894 89.3427 0.992287 90.7234 0.932148C90.3591 0.741709 90.9152 0.631455 91.0303 0.410947C91.222 0.430993 91.222 0.531224 91.548 0.501155C91.8932 0.430993 91.5288 0.340785 91.7589 0.240554C92.2 0.410947 92.6602 0.58134 93.2931 0.671548C93.5999 0.55127 93.1972 0.340785 93.3889 0.240554C94.1176 0.310716 94.3861 0.571317 95.134 0.631455C95.3641 0.601386 95.1723 0.390901 95.2299 0.280647C95.4792 0.320739 95.786 0.340785 96.1503 0.320739C96.3037 0.521201 96.6106 0.811871 96.2462 0.972241C96.9174 0.952194 97.5694 0.992287 98.183 1.10254C98.9884 1.09252 98.509 0.55127 98.7967 0.320739C99.4103 0.511178 100.714 1.00231 101.155 0.410947C101.175 0.771779 101.558 0.831917 101.366 1.19275C101.654 1.07247 101.731 0.851963 101.673 0.58134C102.651 0.681571 102.306 0.210485 102.996 0.190439C102.92 0.320739 103.284 0.270624 103.207 0.410947C103.265 0.511178 103.015 0.471086 102.996 0.541247C103.514 1.16268 104.665 0.360832 105.566 0.71164C105.47 0.821894 105.202 0.851963 105.048 0.932148C105.854 0.952194 106.601 1.06245 107.292 1.28296C107.388 1.16268 107.253 1.10254 107.234 1.00231C107.925 1.15266 107.675 0.791825 108.347 0.831917C108.347 0.701617 108.251 0.621432 108.136 0.441016C108.366 0.430993 108.519 0.370855 108.845 0.400924C109.018 0.55127 109.056 0.661525 108.941 0.831917C109.612 0.681571 108.979 0.461063 109.248 0.220508C109.804 0.260601 110.092 0.410947 110.379 0.571317C110.648 0.481109 111.223 0.541247 111.626 0.521201C111.76 0.741709 111.99 0.922125 112.124 1.13261C112.45 1.12259 112.872 1.16268 113.045 1.09252C112.853 0.962218 113.064 0.561294 112.642 0.651501C112.508 0.481109 112.93 0.501155 113.045 0.561294C112.91 0.430993 112.949 0.340785 113.141 0.260601C113.85 0.220508 113.85 0.481109 114.368 0.521201C114.502 0.451039 114.656 0.380878 114.771 0.300693C115.518 0.400924 116.209 0.531224 116.612 0.781802C116.727 0.771779 116.688 0.701617 116.707 0.651501C117.359 0.691594 117.743 0.851963 118.031 1.0424C118.51 0.942171 117.992 0.701617 118.644 0.561294C118.836 0.641478 118.683 0.721663 118.644 0.821894C118.894 0.831917 119.143 0.831917 119.258 0.781802C119.258 0.621432 118.894 0.611409 118.989 0.390901C119.565 0.16037 120.025 0.601386 120.524 0.300693C120.734 0.511178 120.619 0.691594 121.041 0.87201C121.329 0.831917 120.869 0.721663 121.137 0.651501C121.693 0.641478 121.77 0.84194 122.154 0.912102C122.614 0.771779 122.959 0.851963 123.285 0.651501C123.496 0.731686 123.323 0.861987 123.285 0.952194C123.381 1.03238 123.515 1.08249 123.688 1.12259C124.34 0.982264 124.378 0.571317 124.819 0.340785C125.49 0.310716 125.739 0.461063 125.529 0.691594C126.123 0.731686 125.97 0.441016 126.353 0.390901C126.756 0.561294 127.389 0.641478 127.178 0.952194C127.465 1.02236 127.638 1.12259 128.002 1.0424C128.002 0.892056 128.002 0.751732 128.002 0.601386C127.83 0.451039 127.676 0.741709 127.485 0.601386C127.485 0.541247 127.485 0.481109 127.485 0.430993C127.983 0.511178 127.964 0.410947 128.309 0.340785C128.558 0.601386 129.421 0.601386 129.939 0.731686C130.093 0.651501 130.169 0.541247 130.246 0.430993C130.764 0.410947 130.917 0.55127 131.377 0.561294C131.358 0.861987 132.183 0.801848 131.991 1.1727C132.259 1.24286 132.624 1.26291 132.911 1.2128C133.007 1.35312 132.758 1.3431 132.701 1.4333C132.739 1.48342 132.835 1.52351 133.007 1.52351C132.892 1.19275 133.468 1.03238 134.235 0.962218C134.043 0.87201 134.158 0.641478 134.139 0.481109C134.331 0.481109 134.35 0.430993 134.541 0.441016C134.887 0.511178 135.155 0.621432 135.155 0.831917C134.848 0.651501 134.714 0.922125 134.446 1.00231C135.04 1.09252 135.002 0.751732 135.27 0.962218C135.73 0.932148 135.462 0.691594 135.577 0.611409C135.884 0.691594 136.037 0.571317 136.286 0.651501C136.286 0.721663 136.286 0.801848 136.286 0.87201C136.095 0.892056 136.095 0.992287 135.769 0.962218C135.845 1.18273 135.711 1.22282 135.98 1.35312C136.555 1.32305 136.382 0.972241 136.689 0.831917C137.264 0.791825 137.821 0.831917 138.319 0.962218C138.204 1.14263 137.974 1.27293 137.916 1.48342C138.492 1.64379 138.684 1.25289 139.24 1.26291C139.163 1.10254 139.355 1.05243 139.336 0.912102C140.678 0.531224 142.059 0.370855 143.535 0.430993C143.669 0.55127 143.88 0.631455 143.938 0.781802C144.782 1.02236 145.664 1.0424 146.603 0.87201C146.833 1.00231 146.699 1.16268 147.025 1.303C147.831 1.03238 148.732 1.07247 149.787 0.912102C149.959 0.952194 149.959 1.07247 150.189 1.08249C150.65 1.09252 150.726 0.932148 151.014 0.861987C151.513 0.892056 151.225 1.09252 151.11 1.2128C151.321 1.31303 151.513 1.03238 151.723 0.992287C151.723 0.87201 151.397 0.902079 151.417 0.771779C151.8 0.912102 152.049 0.721663 151.934 0.511178C152.855 0.671548 153.603 0.902079 154.178 1.2128C154.312 1.19275 154.005 0.962218 154.581 1.0424C154.523 0.87201 154.849 0.87201 154.792 0.691594C155.003 0.601386 155.175 0.751732 155.309 0.821894C155.559 0.84194 155.252 0.621432 155.616 0.691594C155.655 0.861987 155.866 0.962218 156.134 1.0424C156.575 0.821894 157.17 0.811871 157.572 0.651501C158.416 0.761756 159.03 1.06245 159.624 1.39321C159.893 1.33307 160.219 1.303 160.142 1.09252C160.564 1.03238 160.851 1.08249 161.369 1.05243C161.561 1.14263 161.599 1.18273 161.465 1.31303C161.734 1.25289 162.155 1.26291 162.29 1.14263C162.712 1.23284 163.191 1.41326 163.114 1.57363C163.229 1.70393 163.594 1.71395 164.035 1.70393C164.169 1.51349 163.555 1.65381 163.632 1.48342C164.073 1.36314 164.284 1.15266 164.763 1.05243C164.629 0.781802 163.824 0.861987 163.632 0.531224C163.977 0.430993 164.284 0.671548 164.648 0.701617C164.84 0.691594 164.706 0.55127 164.859 0.531224C165.55 0.55127 165.53 0.71164 166.298 0.621432C166.393 0.791825 166.528 0.962218 166.7 1.10254C167.18 0.992287 167.697 1.23284 168.023 1.19275C167.985 1.08249 168.196 0.87201 168.234 0.671548C168.79 0.701617 168.33 0.932148 168.541 1.06245C168.752 1.15266 168.695 0.982264 169.021 1.00231C169.155 1.09252 169.366 1.28296 169.116 1.39321C169.538 1.55358 169.596 1.54356 170.248 1.6939C170.267 1.77409 170.114 1.78411 170.152 1.8643C170.133 1.9545 170.516 1.88434 170.67 1.90439C171.341 1.50346 171.609 1.05243 171.494 0.55127C172.05 0.621432 171.935 0.42097 172.319 0.42097C172.568 0.601386 171.993 0.761756 172.415 0.942171C172.261 0.962218 172.319 1.08249 172.012 1.03238C171.955 1.24286 172.722 1.11256 172.837 1.25289C172.875 1.10254 172.798 1.01233 172.741 0.902079C172.875 0.851963 172.894 0.882033 173.048 0.902079C173.124 0.741709 172.875 0.71164 172.952 0.55127C173.278 0.58134 173.585 0.631455 173.872 0.681571C173.968 0.952194 173.795 1.09252 174.39 1.16268C174.352 1.22282 174.217 1.23284 174.179 1.29298C174.198 1.40323 174.524 1.38319 174.793 1.38319C175.042 1.27293 175.31 1.16268 175.195 0.902079C175.579 0.851963 175.387 1.05243 175.598 1.07247C176.193 1.07247 176.116 0.791825 176.212 0.591363C176.384 0.531224 176.749 0.55127 176.825 0.461063C177.995 0.621432 178.532 0.831917 179.702 1.02236C180.047 1.02236 180.143 0.922125 180.315 0.851963C180.296 0.731686 180.124 0.671548 180.105 0.55127C181.293 0.350808 181.696 0.821894 182.463 1.03238C182.482 0.922125 182.502 0.811871 182.156 0.861987C182.08 0.731686 182.271 0.701617 182.252 0.601386C182.597 0.58134 182.559 0.731686 182.77 0.771779C183.115 0.71164 183.518 0.501155 183.786 0.55127C183.652 0.741709 183.69 0.681571 183.997 0.721663C183.978 0.771779 183.786 0.751732 183.786 0.811871C183.882 0.982264 184.208 0.84194 184.496 0.851963C184.553 1.03238 184.822 1.12259 185.014 1.24286C185.205 0.992287 186.107 1.03238 186.03 0.671548C186.414 0.671548 186.433 0.521201 186.95 0.58134C187.066 0.661525 187.085 0.791825 187.161 0.882033C187.372 0.771779 187.679 0.691594 187.564 0.451039C187.833 0.471086 188.044 0.601386 187.871 0.671548C188.159 0.641478 188.235 0.531224 188.58 0.541247C188.504 0.84194 188.926 0.982264 188.676 1.24286C189.213 1.16268 189.482 0.972241 189.597 0.721663C190.019 0.721663 190.191 0.671548 190.613 0.591363C190.767 1.02236 190.517 1.55358 191.63 1.55358C191.668 1.4333 191.936 1.32305 192.55 1.33307C192.588 1.44333 192.608 1.57363 192.742 1.63377C193.336 1.50346 192.531 1.28296 192.435 1.15266C192.607 1.02236 192.646 0.831917 193.049 0.801848C192.876 1.06245 193.509 0.982264 193.662 1.10254C194.027 1.08249 193.892 0.821894 193.566 0.84194C194.103 1.24286 194.774 1.52351 195.618 1.66383C195.848 1.67386 195.676 1.51349 195.714 1.44333C196.136 1.52351 196.424 1.66383 197.037 1.66383C197.325 1.52351 197.095 1.303 197.248 1.18273C197.613 1.25289 198.226 1.20277 198.36 1.05243C198.629 1.08249 198.801 1.16268 198.878 1.27293C199.185 1.1727 199.473 1.06245 199.799 0.972241C199.818 0.851963 199.453 0.892056 199.607 0.71164C199.779 0.721663 199.779 0.671548 199.914 0.671548C200.125 0.651501 200.105 0.731686 200.125 0.801848C200.451 0.821894 200.412 0.691594 200.527 0.631455C200.815 0.721663 201.659 1.00231 201.851 0.721663C202.215 0.781802 202.464 0.902079 202.675 1.02236C202.656 1.16268 202.503 1.24286 202.579 1.41326C202.963 1.42328 202.79 1.18273 203.097 1.15266C203.442 1.12259 203.557 1.19275 203.615 1.28296C203.864 1.24286 203.423 1.05243 203.711 0.982264C203.998 1.03238 204.343 1.03238 204.631 0.982264C204.459 1.09252 204.459 1.28296 204.324 1.42328C204.171 1.40323 203.787 1.4734 203.807 1.38319C203.596 1.39321 203.787 1.57363 203.5 1.55358C203.519 1.67386 203.922 1.63377 204.017 1.72397C204.765 1.50346 205.36 1.18273 205.743 0.761756C206.204 0.902079 205.532 1.0424 205.341 1.15266C205.417 1.29298 205.935 1.24286 206.05 1.37316C206.165 1.20277 206.434 1.10254 206.568 0.932148C207.565 1.09252 208.064 1.0424 208.812 1.32305C209.042 1.303 208.812 1.09252 209.022 1.06245C209.694 1.1727 210.269 1.07247 210.768 1.28296C210.978 1.27293 210.787 1.09252 210.978 1.06245C211.324 1.07247 211.573 1.13261 211.995 1.10254C212.091 0.982264 211.861 0.992287 211.899 0.882033C212.225 0.84194 212.685 0.851963 212.608 0.751732C213.337 0.84194 212.781 1.2128 212.724 1.45335C213.011 1.53353 213.241 1.63377 213.529 1.71395C213.836 1.55358 213.51 1.29298 213.126 1.27293C213.28 1.14263 213.567 1.31303 213.855 1.27293C214.028 1.23284 214.219 1.19275 214.162 1.05243C213.989 0.962217 213.452 0.601386 214.066 0.571317C214.123 0.912102 214.737 1.08249 214.584 1.40323C215.063 1.51349 215.984 1.62374 216.118 1.31303C216.348 1.29298 216.271 1.39321 216.425 1.40323C216.482 1.39321 216.597 1.27293 216.425 1.23284C216.559 1.1727 216.885 1.11256 217.038 1.19275C217.057 0.982264 216.808 0.84194 217.345 0.932148C217.422 0.811871 217.211 0.821894 217.249 0.71164C217.498 0.641478 217.69 0.55127 218.17 0.58134C218.285 0.691594 218.419 0.791825 218.572 0.882033C218.802 0.861987 218.572 0.651501 218.764 0.621432C220.049 0.561294 220.087 0.992287 220.394 1.23284C220.682 1.25289 220.49 1.07247 220.701 1.06245C221.468 1.09252 221.621 1.39321 222.139 1.54356C222.331 1.46337 222.772 1.49344 222.753 1.32305C222.791 1.18273 222.35 1.23284 222.35 1.10254C222.216 0.992287 222.829 0.992287 222.446 0.932148C222.753 0.771779 223.002 1.00231 223.366 0.972241C222.906 1.09252 223.443 1.22282 223.155 1.49344C223.807 1.62374 224.517 1.40323 224.383 1.05243C224.728 0.982264 224.728 1.08249 225.092 1.09252C225.437 1.02236 224.881 0.982264 224.996 0.87201C225.284 0.892056 225.514 0.932148 225.802 0.962218C226.051 1.07247 225.591 1.05243 225.706 1.22282C226.166 1.16268 226.281 0.892056 226.013 0.741709C226.799 0.58134 226.032 1.25289 227.029 1.1727C227.048 1.3431 226.876 1.4333 226.626 1.4734C227.087 1.51349 227.815 1.21279 228.467 1.4333C228.602 1.27293 227.911 1.09252 227.643 0.952194C227.585 0.751732 228.122 0.831917 227.854 0.651501C227.988 0.691594 228.122 0.71164 228.256 0.691594C227.892 0.912102 228.084 0.882033 228.352 1.08249C229.1 1.07247 229.464 1.10254 229.982 1.0424C230.04 1.18273 229.963 1.26291 229.771 1.303C230.136 1.52351 230.864 1.31303 231.21 1.52351C231.344 1.36314 231.746 1.31303 231.823 1.13261C232.264 1.2128 232.859 1.12259 232.955 1.26291C233.338 1.28296 232.993 0.992287 233.261 0.962218C233.53 1.08249 233.357 1.303 233.99 1.35312C233.99 1.26291 234.278 1.08249 234.297 0.87201C234.144 0.71164 233.626 0.902079 233.587 0.651501C233.875 0.651501 235.984 1.22282 236.138 1.35312C236.253 1.10254 237.039 1.12259 236.962 0.781802C237.557 0.731686 237.404 1.03238 237.883 0.912102C237.96 0.992287 238.056 1.07247 238.094 1.1727C238.765 1.15266 239.359 0.972241 239.743 1.3431C239.954 1.31303 239.781 1.12259 240.146 1.1727C240.587 1.13261 240.318 1.38319 240.663 1.39321C240.951 1.35312 241.181 1.29298 241.277 1.1727C241.507 1.16268 241.661 1.18273 241.68 1.26291C242.006 1.22282 242.025 1.09252 241.891 0.962218C242.025 1.02236 242.332 1.00231 242.6 1.00231C242.715 1.16268 242.389 1.14263 242.293 1.22282C242.313 1.37316 242.754 1.3431 242.907 1.44333C243.271 1.05243 244.518 1.26291 244.748 0.791825C245.247 0.701617 246.11 0.851963 246.589 0.882033C246.685 1.10254 246.647 1.14263 246.378 1.27293C246.416 1.41326 246.685 1.46337 246.896 1.53353C247.068 1.31303 246.915 0.861987 247.816 0.751732C247.816 1.02236 247.855 1.42328 247.509 1.71395C248.161 1.68388 248.737 1.57363 249.255 1.36314C249.274 1.25289 249.216 1.1727 248.948 1.19275C248.986 0.912102 249.638 1.16268 249.772 0.932148C250.52 1.05243 250.271 1.50346 250.904 1.58365C251.172 1.54356 250.635 1.50346 250.808 1.36314C251.134 1.36314 251.479 1.38319 251.421 1.23284C251.268 1.15266 250.808 1.20277 250.712 1.10254C250.98 0.972241 251.728 0.892056 252.246 0.751732C252.495 0.811871 252.63 0.932148 252.764 1.05243C253.205 1.02236 252.783 0.751732 252.975 0.701617C253.435 0.972241 254.451 1.00231 255.007 1.22282C255.161 1.10254 254.931 0.892056 255.41 0.831917C255.64 0.811871 255.602 0.892056 255.621 0.962218C255.89 0.972241 255.698 0.791825 256.024 0.831917C256.465 0.982264 255.89 1.54356 257.155 1.52351C257.174 1.41326 257.174 1.31303 256.944 1.303C257.27 1.21279 257.366 1.02236 257.865 1.00231C257.577 1.36314 258.613 1.41326 259.188 1.4333C259.054 1.1727 257.961 1.22282 258.363 0.861987C259.284 0.821894 259.437 1.10254 259.993 1.2128C259.955 1.08249 259.667 1.05243 259.782 0.861987C260.338 0.821894 260.473 0.972241 261.01 0.952194C260.914 1.12259 261.316 1.08249 261.221 1.25289C262.39 1.01233 263.272 1.42328 264.078 1.6037C264.174 1.59367 264.174 1.5636 264.289 1.5636C264.059 1.38319 264.116 1.28296 264.289 1.08249C265.018 1.13261 264.922 0.821894 265.42 0.781802C266.015 0.87201 266.206 1.14263 266.647 1.303C266.935 1.26291 266.763 1.24286 266.743 1.13261C266.916 1.12259 266.954 1.18273 267.146 1.1727C267.299 1.14263 267.184 0.972241 267.146 0.952194C267.491 1.0424 268.527 1.21279 268.891 1.4333C269.409 1.4734 269.39 1.29298 269.812 1.303C270.061 1.32305 269.946 1.4734 270.118 1.52351C270.559 1.50346 270.253 1.37316 270.425 1.303C270.77 1.27293 270.866 1.3431 270.924 1.4333C270.962 1.37316 270.981 1.14263 270.924 1.0424C271.902 0.932148 272.688 1.20277 273.072 0.781802C273.474 0.84194 273.609 1.02236 273.896 1.13261C273.8 1.24286 273.666 1.32305 273.283 1.303C273.532 1.41326 273.877 1.57363 274.299 1.4734C274.778 1.27293 274.51 1.01233 274.203 0.821894C275.2 0.932148 275.603 0.751732 276.562 0.861987C276.6 1.09252 277.29 1.303 277.885 1.4333C278.057 1.23284 277.923 1.13261 277.885 0.952194C278.307 0.87201 279.246 0.922125 279.726 0.821894C279.802 0.952194 279.553 0.952194 279.611 1.08249C279.649 1.1727 279.879 1.1727 280.033 1.2128C280.263 1.12259 279.879 0.982264 280.244 0.912102C280.57 0.892056 280.665 0.962218 280.761 1.0424C280.991 0.992287 281.03 0.87201 281.279 0.821894C282.468 0.691594 283.523 0.811871 284.443 1.1727C284.577 1.19275 284.443 0.972241 284.347 0.952194C284.903 0.761756 285.805 0.811871 286.303 1.12259C286.514 1.08249 286.342 0.882033 286.61 0.861987C286.783 0.801848 287.185 0.902079 287.224 1.03238C287.703 0.942171 289.007 0.912102 289.371 1.07247C289.256 1.11256 289.333 1.23284 289.065 1.20277C289.218 1.33307 289.276 1.49344 289.487 1.59367C290.062 1.50346 289.832 1.58365 290.503 1.59367C290.215 1.32305 290.407 1.19275 290.714 0.982264C291.73 0.962218 291.673 1.28296 291.941 1.50346C292.075 1.48342 291.864 1.303 292.133 1.24286C292.095 1.09252 291.673 1.09252 291.73 0.892056C293.552 0.71164 296.313 0.972241 298.289 0.892056C299.017 1.10254 299.343 1.49344 300.129 1.67386C300.513 1.67386 300.494 1.51349 300.743 1.45335C300.551 1.23284 300.628 1.1727 300.532 0.932148C301.165 0.962218 301.625 0.87201 301.759 1.15266C301.951 1.15266 301.894 1.03238 302.162 1.06245C302.258 1.12259 302.258 1.22282 302.373 1.28296C303.255 1.24286 304.866 1.4734 305.345 0.982264C305.403 1.08249 305.154 1.0424 305.134 1.11256C305.614 1.11256 305.691 0.942171 306.247 0.982264C306.189 1.07247 306.419 1.28296 306.036 1.24286C306.132 1.303 306.189 1.38319 306.438 1.37316C306.592 1.28296 306.4 1.07247 306.534 0.982264C306.649 0.992287 306.707 0.972241 306.745 0.942171C307.359 1.46337 309.066 1.26291 309.909 1.68388C310.581 1.68388 310.504 1.37316 310.523 1.29298C310.849 1.18273 311.712 1.44333 311.654 1.03238C312.268 1.13261 311.578 1.33307 311.654 1.4734C311.942 1.52351 312.479 1.65381 312.978 1.734C313.246 1.70393 312.613 1.59367 313.073 1.5636C313.553 1.5636 313.265 1.68388 313.284 1.8242C313.419 1.8242 313.553 1.8242 313.687 1.8242C313.898 1.63377 313.975 1.44333 313.994 1.08249C314.646 1.05243 315.298 1.01233 315.931 0.952194C315.988 0.992287 316.027 1.03238 316.142 1.0424C316.199 1.2128 315.873 1.2128 315.931 1.39321C315.566 1.38319 315.547 1.33307 315.221 1.39321C315.26 1.58365 315.49 1.68388 315.931 1.6939C316.295 1.58365 315.777 1.22282 316.544 1.2128C316.755 1.29298 316.583 1.37316 316.544 1.4734C316.621 1.71395 317.81 1.48342 317.772 1.77409C318.788 1.734 318.27 1.05243 319.402 1.07247C319.306 1.32305 319.919 1.25289 319.824 1.50346C320.399 1.52351 320.533 1.55358 321.051 1.50346C321.128 1.37316 320.878 1.37316 320.955 1.24286C321.243 1.14263 321.53 1.05243 321.971 1.02236C322.01 1.23284 322.221 1.27293 322.374 1.50346C323.582 1.76407 322.892 1.02236 323.908 1.07247C324.1 1.94448 325.711 1.14263 326.574 1.07247C326.631 1.27293 327.13 1.303 327.379 1.42328C327.743 1.40323 327.743 1.23284 328.204 1.25289C328.28 1.39321 328.51 1.4734 328.51 1.64379C328.894 1.74402 328.894 1.55358 329.335 1.55358C329.393 1.58365 329.45 1.62374 329.431 1.68388C329.834 1.62374 330.179 1.54356 330.543 1.46337C330.984 1.53353 331.349 1.64379 331.77 1.72397C331.981 1.61372 332.116 1.46337 332.595 1.46337C332.576 1.303 332.48 1.3431 332.595 1.20277C333.113 1.18273 333.113 1.39321 333.42 1.46337C333.611 1.40323 333.88 1.36314 333.822 1.20277C333.784 1.14263 333.573 1.16268 333.42 1.16268C335.184 0.55127 334.187 1.96453 336.181 1.81418C336.315 1.74402 335.874 1.51349 336.392 1.46337C335.951 1.28296 335.913 1.63377 335.471 1.59367C335.241 1.39321 335.951 1.26291 336.181 1.11256C336.469 1.14263 336.43 1.29298 336.795 1.28296C336.833 1.38319 336.776 1.44333 336.584 1.45335C336.948 1.6037 337.37 1.5636 337.811 1.49344C337.888 1.63377 338.099 1.72397 338.425 1.75404C338.463 1.61372 338.847 1.61372 338.942 1.49344C339.518 1.52351 339.92 1.63377 340.477 1.66383C340.515 1.4734 340.208 1.4333 340.266 1.22282C340.457 1.20277 340.438 1.10254 340.783 1.13261C340.783 1.20277 340.783 1.27293 340.783 1.35312C341.455 1.26291 341.704 1.6037 341.915 1.74402C344.005 1.64379 347.131 1.5636 348.876 1.74402C349.068 1.734 348.933 1.59367 349.087 1.57363C349.739 1.61372 350.18 1.77409 351.234 1.74402C351.906 1.5636 351.369 1.10254 352.251 1.0424C352.117 1.303 352.519 1.51349 352.251 1.6939C353.325 1.67386 353.095 1.09252 353.996 1.00231C354.379 1.27293 353.612 1.37316 353.382 1.52351C353.536 1.734 353.996 1.55358 354.303 1.6939C354.36 1.55358 354.111 1.54356 354.207 1.39321C354.514 1.23284 354.801 1.32305 355.223 1.22282C355.185 1.6939 356.201 1.91441 357.064 1.74402C356.949 1.54356 356.604 1.44333 356.355 1.31303C356.968 0.932148 357.927 1.01233 358.713 1.01233C358.713 1.19275 358.349 1.20277 358.311 1.36314C358.502 1.51349 358.675 1.29298 358.924 1.32305C358.963 1.48342 358.809 1.5636 358.713 1.67386C359.058 1.8242 359.557 1.89437 360.247 1.89437C360.267 1.65381 359.634 1.50346 359.845 1.32305C360.094 1.33307 360.247 1.38319 360.247 1.49344C360.784 1.4333 360.823 1.16268 361.686 1.23284C361.551 1.57363 361.571 1.68388 362.299 1.80416C362.606 1.77409 362.472 1.55358 362.817 1.54356C363.316 1.53353 363.392 1.70393 363.546 1.84425C363.718 1.84425 363.891 1.84425 364.063 1.84425C363.987 1.55358 365.08 1.50346 365.08 1.06245C365.559 1.53353 366.269 1.85427 367.228 2.02467C367.477 2.01464 367.573 1.8643 367.841 1.98457C368.091 1.9545 367.649 1.8643 367.745 1.76407C368.071 1.70393 368.474 1.72397 368.263 1.89437C368.34 1.87432 368.436 1.85427 368.57 1.85427C368.532 1.72397 368.359 1.65381 368.052 1.63377C368.263 1.44333 367.822 1.39321 368.052 1.24286C368.378 1.19275 368.301 1.31303 368.455 1.33307C368.704 1.24286 368.819 1.08249 369.279 1.07247C369.03 1.25289 369.49 1.303 369.279 1.46337C369.721 1.4333 369.299 1.16268 369.49 1.11256C370.123 1.12259 370.66 1.53353 370.315 1.68388C371.197 1.91441 370.986 1.3431 371.235 1.07247C371.696 1.11256 372.213 1.12259 372.367 1.29298C372.386 1.41326 372.079 1.4333 371.964 1.38319C372.041 1.63377 372.961 1.51349 372.98 1.77409C373.326 1.76407 373.805 1.80416 374.016 1.734C374.093 1.57363 373.882 1.52351 373.92 1.38319C374.323 1.24286 374.649 1.42328 374.841 1.51349C375.301 1.52351 375.109 1.25289 375.55 1.25289C375.684 1.6037 375.032 1.61372 374.63 1.734C374.994 1.93446 375.704 1.80416 376.356 1.8242C375.876 1.72397 375.608 1.27293 376.049 1.0424C376.816 1.11256 377.602 1.12259 378.388 1.08249C378.369 1.19275 378.369 1.29298 378.599 1.303C378.676 1.29298 378.714 1.26291 378.81 1.26291C379.079 1.25289 378.657 1.19275 378.81 1.09252C379.194 1.31303 379.117 1.05243 379.826 1.09252C379.865 1.22282 379.711 1.4333 380.037 1.44333C380.018 1.55358 379.692 1.45335 379.731 1.40323C379.424 1.4734 379.616 1.5636 379.635 1.70393C379.961 1.58365 379.941 1.49344 380.555 1.44333C380.363 1.65381 379.98 1.74402 379.731 1.83423C380.824 2.05474 381.399 1.66383 382.3 1.61372C382.204 1.54356 382.051 1.52351 381.782 1.52351C381.667 1.40323 381.763 1.303 381.878 1.1727C382.147 1.19275 382.224 1.28296 382.281 1.39321C382.607 1.40323 382.703 1.31303 383.106 1.35312C383.259 1.4333 383.106 1.64379 383.623 1.57363C383.7 1.70393 383.508 1.734 383.508 1.83423C383.911 2.00462 384.755 1.88434 385.349 1.87432C384.947 1.6037 384.678 1.49344 385.042 1.13261C385.253 1.12259 385.368 1.1727 385.349 1.26291C385.637 1.19275 385.752 1.05243 386.27 1.09252C386.289 1.44333 386.692 1.64379 386.059 1.83423C386.711 2.01464 387.746 1.61372 387.689 1.35312C388.034 1.35312 388.379 1.35312 388.302 1.52351C388.59 1.51349 388.533 1.36314 388.705 1.303C388.916 1.22282 389.127 1.38319 389.415 1.39321C389.05 1.55358 389.76 1.72397 389.415 1.87432C389.779 1.83423 389.913 1.97455 390.124 1.87432C390.163 1.70393 390.565 1.38319 390.738 1.13261C391.275 1.07247 391.812 1.06245 392.368 1.09252C392.368 1.19275 392.54 1.22282 392.464 1.35312C391.908 1.42328 391.697 1.49344 391.332 1.57363C391.428 1.67386 391.965 1.59367 392.253 1.61372C392.272 1.79413 392.08 1.88434 391.946 2.00462C393.02 2.40554 393.902 1.6037 395.225 2.04471C395.321 1.9946 395.609 2.03469 395.532 1.91441C394.995 1.80416 395.34 1.58365 395.014 1.39321C394.784 1.40323 394.592 1.48342 394.4 1.39321C394.362 1.29298 394.592 1.303 394.496 1.1727C394.957 1.29298 395.091 1.06245 395.513 1.1727C395.34 1.31303 395.57 1.36314 395.82 1.4333C396.107 1.44333 396.126 1.33307 396.433 1.3431C396.376 1.48342 396.932 1.36314 396.836 1.51349C397.104 1.50346 397.181 1.40323 397.239 1.29298C399.195 1.31303 398.945 1.97455 400 2.42559C399.674 2.52582 399.904 3.05705 399.386 2.94679C399.54 3.20739 399.827 3.39783 400 3.64841C399.348 3.60832 399.367 3.84887 399.175 3.99922C398.754 4.00924 398.543 3.91903 398.044 3.95912C397.986 3.84887 397.641 3.86892 397.737 3.69852C396.107 3.98919 394.976 3.92905 393.231 3.69852C392.962 3.72859 393.02 3.89899 392.732 3.91903C391.946 3.85889 391.466 3.66845 391.102 3.43792C390.354 3.62836 389.395 3.72859 388.437 3.82882C388.437 3.73862 388.437 3.65843 388.437 3.56822C385.273 4.01926 382.051 3.96915 378.81 3.43792C378.503 3.49806 378.733 3.53815 378.618 3.69852C378.196 3.56822 377.986 3.65843 377.487 3.69852C377.449 3.59829 377.506 3.52813 377.583 3.47802C376.317 3.28758 375.013 3.23746 373.69 3.30762C373.556 3.39783 373.422 3.48804 373.172 3.52813C369.586 3.76869 372.022 2.6461 364.984 3.65843C364.85 3.59829 364.485 3.63839 364.466 3.52813C363.603 3.75866 362.683 3.80878 361.705 3.65843C361.628 3.49806 361.82 3.44795 361.82 3.30762C358.445 2.98688 355.127 3.037 351.886 3.47802C351.829 3.40785 351.733 3.36776 351.676 3.30762C350.908 3.36776 350.87 3.26753 350.237 3.26753C350.103 3.33769 349.892 3.37778 349.93 3.52813C349.259 3.67848 348.665 3.32767 348.185 3.52813C348.09 3.28758 347.648 3.44795 347.476 3.26753C344.465 3.53815 341.435 3.62836 338.367 3.52813C338.252 3.40785 338.041 3.32767 337.849 3.22744C336.143 3.4279 335.146 3.53815 333.554 3.39783C333.477 3.34772 333.42 3.27755 333.458 3.17732C332.748 3.14725 332.633 3.37778 332.135 3.43792C331.598 3.41788 331.483 3.22744 331.003 3.17732C330.16 3.45797 328.76 3.07709 327.724 3.34772C327.648 3.30762 327.628 3.24748 327.628 3.17732C325.596 3.67848 323.103 2.88665 321.281 3.47802C320.897 3.25751 320.361 3.11718 319.651 3.037C319.076 3.30762 309.411 4.04933 308.299 3.1673C308.088 3.21741 307.896 3.28758 307.685 3.33769C303.562 3.31765 296.448 3.4279 292.842 3.037C292.478 3.18735 292.133 3.06707 292.018 3.2976C290.177 2.91672 281.337 2.62605 278.824 3.1673C278.518 3.13723 278.537 2.96684 278.307 2.9067C277.77 3.11718 272.611 3.25751 271.653 3.25751C271.231 3.24748 271.25 3.04702 270.943 2.99691C271.096 2.80647 270.809 2.68619 271.154 2.56591C270.598 2.54587 270.291 3.01695 269.831 3.17732C269.102 3.05705 268.565 3.22744 268.201 3.08711C267.836 3.06707 267.951 3.23746 267.587 3.21741C267.28 3.18735 266.993 3.14725 266.973 2.99691C266.878 2.85658 267.319 2.93677 267.28 2.82651C266.667 2.34541 263.579 3.31765 262.678 2.95681C262.505 3.14725 262.045 2.99691 261.968 3.25751C261.201 3.1673 260.147 3.15728 259.706 2.82651C258.172 3.20739 256.58 3.36776 254.892 3.30762C254.643 3.24748 254.47 3.13723 254.375 3.00693C253.531 3.12721 253.493 2.85658 252.841 2.78642C252.668 2.84656 252.687 2.97686 252.534 3.04702C252.016 3.02698 251.517 3.12721 251.211 3.30762C250.731 3.23746 250.002 3.27755 249.772 3.08711C249.619 3.14725 249.465 3.21741 249.274 3.25751C248.027 3.39783 246.857 3.32767 245.784 3.037C245.477 3.07709 245.918 3.14725 245.784 3.25751C245.515 3.26753 245.438 3.19737 245.477 3.08711C244.441 3.15728 243.137 3.41788 242.6 2.99691C242.294 3.00693 242.313 3.1673 241.987 3.1673C241.45 2.96684 240.318 3.05705 239.935 3.1673C239.705 3.1673 239.513 3.06707 239.206 3.00693C238.171 3.17732 236.752 2.96684 235.716 3.17732C235.774 3.13723 235.812 3.10716 235.812 3.04702C235.486 3.037 235.563 3.19737 235.409 3.26753C234.968 3.11718 234.239 3.09714 233.875 2.91672C233.511 2.99691 232.935 2.98688 232.955 3.21741C232.303 3.26753 228.621 3.12721 228.141 2.95681C228.007 3.02698 227.739 3.04702 227.835 3.21741C226.569 2.91672 225.322 3.18735 224.249 3.08711C224.018 3.11718 223.884 3.19737 223.731 3.25751C223.29 3.18735 222.983 3.05705 222.81 2.86661C221.794 3.27755 220.682 3.4279 219.435 3.2976C218.841 3.22744 218.707 2.96684 218.112 2.9067C217.959 2.94679 217.709 2.93677 217.805 3.07709C217.46 3.06707 216.674 2.92674 216.77 3.20739C216.348 3.19737 216.214 3.06707 215.849 3.037C215.696 3.09714 215.696 3.23746 215.332 3.20739C215.332 3.13723 215.332 3.06707 215.332 2.98688C214.43 3.12721 213.759 2.97686 213.069 3.20739C213.069 3.14725 213.069 3.08711 213.069 3.037C212.302 3.11718 211.515 2.86661 210.825 2.7764C210.518 2.81649 210.652 3.04702 210.422 3.12721C210.077 3.12721 209.732 3.12721 209.406 3.12721C209.847 2.96684 209.214 2.78642 208.696 2.7764C208.466 2.91672 208.447 3.13723 208.083 3.20739C207.508 3.00693 206.645 3.31765 206.146 2.94679C205.762 2.94679 205.743 3.09714 205.532 3.1673C205.226 3.1673 205.149 3.06707 205.015 2.99691C204.056 3.38781 202.637 2.72628 201.64 3.037C201.678 2.94679 201.563 2.91672 201.544 2.86661C201.122 2.99691 200.853 3.17732 200.221 3.21741C199.856 3.18735 199.703 3.05705 199.511 2.95681C199.223 2.96684 199.204 3.08711 199.108 3.17732C198.897 3.17732 198.706 3.17732 198.495 3.17732C198.456 3.07709 198.303 2.99691 198.495 2.91672C198.188 3.07709 197.708 3.1673 197.056 3.17732C196.865 3.11718 196.692 3.04702 196.539 2.95681C194.794 3.01695 193.049 3.10716 191.323 3.21741C191.169 3.14725 191.399 2.78642 190.805 2.78642C190.613 2.9067 190.517 3.07709 190.287 3.17732C189.597 3.09714 189.156 3.17732 188.446 3.13723C188.082 3.04702 188.178 2.75635 187.622 2.74633C187.392 2.73631 187.583 2.89668 187.526 2.96684C186.95 2.88665 186.375 2.81649 185.992 2.66614C185.666 2.68619 185.589 2.9067 185.896 2.96684C185.455 3.00693 185.32 3.02698 185.282 3.22744C184.227 3.05705 183.211 2.92674 182.214 3.22744C181.945 3.21741 182.003 3.07709 182.003 2.96684C181.485 2.92674 181.6 3.14725 181.293 3.18735C180.546 3.1673 180.009 3.06707 179.453 2.96684C179.376 3.037 179.127 3.037 179.146 3.13723C178.647 3.17732 178.475 3.07709 178.129 3.04702C178.149 3.00693 178.321 3.01695 178.321 2.96684C174.965 3.28758 171.629 3.31765 168.292 3.05705C168.369 2.93677 168.138 2.94679 168.196 2.83654C168.023 2.9067 168.062 3.07709 167.889 3.13723C167.525 3.05705 167.64 2.99691 167.065 3.04702C166.93 2.91672 166.854 2.75635 166.547 2.69621C166.221 2.83654 166.969 2.89668 166.854 3.08711C165.895 3.19737 164.974 3.11718 164.092 2.82651C163.862 2.65612 164.284 2.65612 164.399 2.52582C164.226 2.48573 164.092 2.3855 164.303 2.30531C163.709 2.43561 163.574 2.66614 163.594 2.95681C162.481 3.24748 160.334 3.037 160.123 2.34541C159.643 2.71626 158.953 2.96684 158.071 3.08711C157.975 2.92674 158.512 3.037 158.569 2.95681C158.569 2.88665 158.569 2.81649 158.569 2.73631C158.09 2.79644 157.687 2.88665 157.553 3.08711C157.323 3.05705 156.786 2.97686 156.729 3.12721C156.498 3.10716 156.69 2.91672 156.633 2.82651C155.175 2.72628 153.756 2.78642 152.337 2.99691C152.126 3.00693 152.126 3.11718 152.03 3.1673C151.723 3.1673 151.896 2.95681 151.723 2.9067C149.672 2.57594 147.696 2.60601 145.798 3.00693C145.951 2.81649 146.066 2.67617 145.798 2.48573C145.721 2.49575 145.702 2.52582 145.587 2.52582C145.721 2.72628 145.012 2.71626 145.069 3.00693C144.686 2.97686 144.571 3.05705 144.245 3.04702C144.283 2.94679 144.226 2.87663 144.149 2.82651C143.919 2.83654 143.919 2.93677 143.938 3.04702C143.401 3.00693 143.305 3.04702 142.711 3.04702C142.615 2.95681 142.557 2.85658 142.404 2.78642C142.097 2.75635 142.097 2.86661 141.79 2.82651C141.733 2.96684 141.982 2.97686 141.886 3.12721C141.675 3.07709 141.464 3.00693 141.292 2.91672C141.196 2.7764 141.445 2.7764 141.598 2.74633C141.541 2.68619 141.445 2.63608 141.292 2.61603C139.623 2.67617 137.993 2.80647 136.382 3.00693C136.421 2.80647 136.344 2.6461 135.98 2.61603C135.75 2.63608 135.884 2.85658 136.076 2.83654C134.12 2.63608 131.512 3.53815 130.15 2.70624C129.901 2.74633 130.016 2.93677 129.843 3.00693C127.983 2.54587 122.729 3.40785 121.847 2.65612C121.502 2.65612 121.367 2.74633 121.444 2.91672C120.754 3.09714 120.543 2.95681 119.603 3.00693C119.603 2.96684 119.603 2.91672 119.603 2.87663C116.899 2.85658 114.214 2.91672 111.53 3.04702C111.281 3.037 111.3 2.91672 111.127 2.87663C109.478 2.71626 107.81 2.65612 106.122 2.70624C105.949 2.86661 105.643 2.96684 105.106 2.96684C104.991 2.91672 104.991 2.81649 105.01 2.70624C104.665 2.80647 103.955 2.74633 103.993 3.00693C102.363 2.89668 101.175 2.80647 99.6021 2.96684C99.161 2.85658 99.698 2.50577 99.2953 2.44564C98.9501 2.54587 98.7008 2.81649 98.7775 2.96684C98.4323 2.82651 98.1447 2.9067 97.9529 3.05705C96.438 2.97686 96.0161 2.78642 94.3669 2.96684C93.8108 2.86661 93.4657 2.67617 93.4465 2.35543C93.0629 2.30531 93.1588 2.46568 92.8328 2.44564C92.7945 2.62605 93.178 2.62605 93.0438 2.83654C92.9479 2.86661 92.8904 2.91672 92.8328 2.96684C91.1453 3.19737 89.5728 3.10716 88.1346 2.70624C87.7894 2.70624 87.8661 2.87663 87.6169 2.92674C85.7759 2.91672 83.935 2.93677 82.0941 2.96684C81.5955 2.93677 81.4229 2.75635 81.0777 2.66614C80.6175 2.73631 80.4257 2.91672 79.9463 2.96684C79.8696 2.78642 79.2751 2.81649 79.0258 2.70624C78.8532 2.76638 78.7574 2.85658 78.719 2.96684C76.8589 2.67617 74.9988 2.61603 73.1003 2.79644C72.9661 2.82651 72.9086 2.88665 72.8894 2.96684C71.5279 2.84656 70.2814 2.98688 68.9966 2.96684C68.7281 2.82651 69.3801 2.7764 69.0925 2.61603C68.6514 2.57594 68.7857 2.7764 68.4788 2.78642C67.8268 2.81649 67.7693 2.59598 67.3474 2.52582C67.1748 2.58596 67.2324 2.74633 67.0406 2.78642C65.3339 2.95681 63.4738 2.29529 61.6137 2.69621C61.7096 2.7764 61.9397 2.82651 61.7096 2.91672C60.4248 2.88665 58.277 2.9067 57.1072 2.56591C56.6662 2.59598 56.6662 2.80647 56.2827 2.86661C55.8224 2.81649 55.2471 2.81649 54.9595 2.69621C54.6527 2.73631 54.4226 2.81649 54.1349 2.86661C53.1186 2.6461 51.642 3.04702 50.8557 2.60601C50.7599 2.69621 50.5297 2.72628 50.338 2.7764C50.1462 2.76638 50.2805 2.62605 50.127 2.60601C49.9353 2.72628 49.4559 2.72628 49.3025 2.86661C48.6696 2.65612 46.8671 2.82651 46.8479 2.42559C46.4452 2.44564 46.5219 2.66614 46.3301 2.7764C44.3741 2.70624 40.9799 3.09714 39.0623 2.68619C38.928 2.71626 39.139 2.85658 38.6596 2.81649C38.5637 2.72628 38.6979 2.62605 38.4486 2.5158C38.0843 2.48573 38.0459 2.60601 37.7391 2.60601C37.624 2.5158 37.2405 2.42559 37.5282 2.30531C37.0871 2.73631 35.2845 2.92674 34.5558 2.43561C34.2682 2.47571 34.7092 2.55589 34.4599 2.60601C33.8463 2.63608 33.2327 2.66614 32.83 2.7764C32.5615 2.76638 32.6765 2.61603 32.5231 2.55589C24.0472 3.20739 14.1713 2.30531 5.63785 2.61603C5.79127 2.3855 5.29268 2.44564 5.12009 2.35543C4.88998 2.34541 5.06256 2.50577 5.02421 2.57594C3.73939 2.62605 2.5121 2.52582 1.34235 2.27524C1.20811 2.43561 1.66834 2.35543 1.53411 2.52582C1.20811 2.59598 0.90129 2.54587 0.613644 2.48573C0.536938 2.19506 1.03552 2.10485 1.13141 1.78411C1.09305 1.734 0.958819 1.71395 0.920466 1.65381C0.709526 1.66383 0.90129 1.84425 0.709526 1.87432C0.345175 1.79413 0.287646 1.59367 0 1.48342C0.0383528 1.22282 0.594468 1.303 0.920466 1.26291C0.824584 1.09252 0.517762 0.87201 0.920466 0.741709C0.613644 0.71164 0.556115 0.781802 0.306822 0.781802C0.441057 0.521201 0.0767055 0.481109 0.0958819 0.260601C1.89846 0.330762 0.69035 1.42328 2.85728 1.35312C3.20245 1.25289 3.25998 1.03238 3.56681 0.922125C3.47092 0.791825 3.41339 1.02236 3.1641 0.962218C2.99151 0.851963 3.33669 0.791825 2.97234 0.781802C3.06822 0.661525 3.27916 0.641478 3.58598 0.701617C3.52845 0.661525 3.4901 0.621432 3.37504 0.611409C3.64351 0.541247 4.44892 0.621432 4.81327 0.651501C4.98586 0.611409 4.92833 0.471086 5.02421 0.390901C5.2735 0.410947 5.63785 0.390901 5.63785 0.521201C5.31186 0.471086 5.33103 0.491132 5.21597 0.611409C5.2735 0.761756 5.56115 0.811871 6.04056 0.781802C6.15562 0.591363 5.69538 0.641478 5.73374 0.481109C6.13644 0.661525 6.50079 0.350809 6.75008 0.611409C6.92267 0.571317 6.92267 0.451039 7.15279 0.441016C7.7089 0.541247 8.22667 0.681571 8.6869 0.882033C8.66772 0.741709 8.24584 0.771779 8.18831 0.651501C8.30337 0.55127 8.39925 0.451039 8.59102 0.390901C9.33889 0.370855 8.80196 0.912102 9.4156 0.952194C9.4923 0.701617 9.83748 0.55127 10.0292 0.340785C10.3552 0.350808 10.2594 0.541247 10.4319 0.611409C10.7388 0.561294 10.3169 0.461063 10.4319 0.350808C10.8155 0.400924 10.7196 0.240554 11.0456 0.260601C11.3332 0.390901 11.6017 0.511178 11.9661 0.611409C12.1962 0.601386 12.1962 0.501155 12.177 0.390901C12.503 0.461063 12.6372 0.410947 13.0016 0.390901C13.0783 0.220508 12.8482 0.0701617 13.0016 0C13.4043 0.0701617 13.9988 0.0701617 14.1138 0.260601C14.3056 0.240554 14.3056 0.140323 14.6316 0.170393C14.5165 0.380878 14.9576 0.360832 14.8425 0.571317C14.5165 0.621432 14.0371 0.601386 13.922 0.741709C14.1713 1.08249 14.8042 1.00231 15.3411 1.22282C15.9164 1.20277 15.6479 0.801848 15.9547 0.781802C15.9164 0.71164 15.8205 0.801848 15.6479 0.781802C15.6671 0.651501 15.2836 0.58134 15.552 0.481109C16.1082 0.561294 16.3191 0.55127 16.8752 0.651501C16.856 0.511178 16.7218 0.400924 16.7793 0.220508C17.3546 0.29067 17.3163 0.100231 17.4889 0C18.2559 0.16037 18.1409 0.681571 19.2339 0.701617C19.5791 0.611409 19.2723 0.571317 19.2339 0.441016C19.5215 0.481109 19.5024 0.380878 19.7517 0.400924C19.8284 0.180416 19.4448 0.170393 19.6558 0.0100231C20.0393 0.0100231 19.9243 0.210485 20.4804 0.140323C20.653 0.200462 20.4804 0.400924 20.7872 0.400924C21.2666 0.42097 20.9022 0.0701617 21.1707 0C22.0912 0.310716 22.8774 0.691594 23.5294 1.13261C23.4335 1.02236 23.376 0.741709 23.3185 0.521201C23.0884 0.58134 22.9158 0.671548 22.7048 0.741709C22.4555 0.681571 22.2829 0.601386 22.3021 0.441016C22.5322 0.410947 22.8199 0.400924 23.0117 0.350808C23.0884 0.200462 22.8582 0.180416 22.9158 0.0501155C23.5678 -0.0601386 29.5891 0.280647 30.1836 0.611409C30.2795 0.461063 30.2795 0.310716 30.1836 0.0902079C31.4876 0.100231 31.7369 0.561294 32.945 0.611409C33.0409 0.521201 32.9642 0.330762 33.4628 0.310716C33.4052 0.451039 33.7696 0.410947 33.6737 0.571317C33.9614 0.541247 33.9422 0.360832 34.3832 0.400924C34.6709 0.521201 34.2874 0.58134 34.2874 0.701617C34.7668 0.71164 34.8051 0.541247 35.1119 0.481109C35.3421 0.501155 35.0928 0.721663 35.4188 0.701617C35.5338 0.641478 35.1311 0.430993 35.8215 0.441016C35.4571 0.671548 36.1858 0.571317 36.3392 0.701617C36.7036 0.681571 36.7036 0.501155 37.1638 0.531224C36.8762 0.461063 36.9337 0.280647 37.1638 0.140323C37.3748 0.360832 38.0651 0.370855 38.487 0.491132C38.6404 0.340785 38.928 0.240554 39.1006 0.100231C39.6759 0.280647 39.9636 0.58134 40.6347 0.71164C40.6731 0.621432 40.6156 0.250577 41.2484 0.280647C41.0566 0.55127 41.7853 0.430993 42.1688 0.451039C42.3223 0.661525 42.5524 0.84194 42.9934 0.932148C43.1852 0.851963 43.0701 0.851963 43.3961 0.892056C43.5687 0.851963 43.5112 0.701617 43.6071 0.631455C43.3386 0.601386 43.166 0.631455 43.0701 0.701617C42.8784 0.651501 42.9934 0.471086 42.5524 0.531224C42.9551 0.380878 43.2044 0.170393 43.7797 0.100231C44.3933 0.370855 45.1987 0.541247 45.7165 0.84194C45.8699 0.791825 45.8699 0.671548 46.0233 0.621432C46.4068 0.661525 46.6369 0.801848 47.0396 0.71164C46.8287 0.531224 47.078 0.0701617 47.4424 0.140323C47.1931 0.320739 47.7492 0.260601 47.6725 0.0902079C48.2478 0.0701617 47.7492 0.260601 47.6725 0.0902079ZM23.6253 0.390901C23.7212 0.55127 24.5074 0.561294 24.4499 0.350808C24.0664 0.320739 23.8554 0.481109 23.6253 0.390901ZM24.6608 0.741709C25.121 0.781802 25.1019 0.350808 24.5649 0.441016C24.5841 0.541247 24.7183 0.601386 24.6608 0.741709ZM41.2292 0.651501C41.3826 0.671548 41.4785 0.71164 41.6319 0.741709C41.6319 0.681571 41.6319 0.621432 41.6319 0.571317C41.4018 0.55127 41.2676 0.58134 41.2292 0.651501C41.3826 0.681571 41.2676 0.58134 41.2292 0.651501ZM17.4889 0.831917C17.5464 0.691594 17.3738 0.651501 17.182 0.611409C17.1629 0.731686 17.182 0.851963 17.4889 0.831917ZM19.9434 0.87201C20.0585 0.902079 20.4228 1.0424 20.5571 0.912102C19.8859 0.922125 20.7488 0.831917 20.5571 0.651501C20.1544 0.631455 20.1927 0.811871 19.9434 0.87201C20.0585 0.902079 20.1927 0.811871 19.9434 0.87201ZM176.499 1.0424C176.634 1.18273 176.806 1.49344 177.324 1.3431C177.42 1.1727 176.979 1.23284 177.113 1.0424C177.497 1.0424 177.401 0.992287 177.727 1.0424C177.612 0.912102 177.592 0.751732 177.209 0.741709C176.864 0.801848 176.806 0.982264 176.499 1.0424C176.634 1.19275 176.806 0.982264 176.499 1.0424ZM108.96 1.0424C109.094 1.0424 109.229 1.0424 109.363 1.0424C109.325 0.942171 109.19 0.882033 108.96 0.87201C108.96 0.932148 108.96 0.992287 108.96 1.0424C109.094 1.0424 108.96 0.992287 108.96 1.0424ZM217.614 1.00231C217.997 0.942171 217.633 1.19275 218.016 1.13261C218.15 1.10254 218.208 1.0424 218.227 0.962218C218.016 0.962218 218.093 0.84194 217.824 0.87201C217.805 0.932148 217.652 0.942171 217.614 1.00231C218.016 0.942171 217.652 0.942171 217.614 1.00231ZM218.841 1.0424C218.726 1.0424 218.63 1.0424 218.534 1.0424C218.457 1.16268 218.745 1.12259 218.841 1.1727C218.745 1.02236 219.186 1.10254 219.243 1.13261C219.205 0.992287 219.569 1.03238 219.454 0.87201C219.052 0.84194 218.994 0.962218 218.841 1.0424C218.745 1.0424 218.994 0.962218 218.841 1.0424ZM118.376 1.0424C118.318 1.39321 118.587 1.62374 118.165 1.8242C119.066 1.72397 119.009 1.4734 119.296 1.12259C118.989 1.0424 118.798 1.00231 118.376 1.0424C118.318 1.39321 118.798 1.00231 118.376 1.0424ZM182.521 1.57363C182.195 1.54356 182.31 1.3431 181.811 1.40323C181.945 1.62374 182.348 1.9545 182.828 1.88434C182.406 1.49344 184.132 1.40323 183.652 1.00231C183.211 1.16268 182.828 1.35312 182.521 1.57363C182.214 1.54356 182.828 1.35312 182.521 1.57363ZM12.4838 1.26291C12.6948 1.32305 13.2892 1.25289 13.1933 1.0424C12.7906 1.0424 12.4263 1.07247 12.4838 1.26291ZM177.707 1.1727C177.727 1.3431 177.995 1.40323 178.321 1.4333C178.494 1.3431 178.321 1.14263 178.014 1.13261C178.014 1.18273 177.861 1.18273 177.707 1.1727C177.727 1.3431 177.861 1.18273 177.707 1.1727ZM199.3 1.65381C199.453 1.53353 199.645 1.4333 200.01 1.52351C199.952 1.31303 200.47 1.35312 200.221 1.1727C199.837 1.14263 199.779 1.24286 199.396 1.2128C199.377 1.36314 199.262 1.64379 198.993 1.4333C199.032 1.54356 199.108 1.62374 199.3 1.65381C199.453 1.54356 199.108 1.62374 199.3 1.65381ZM281.969 1.35312C282.123 1.40323 282.219 1.48342 282.487 1.48342C282.583 1.37316 282.679 1.27293 282.89 1.22282C282.621 1.13261 281.95 1.1727 281.969 1.35312C282.123 1.40323 281.95 1.1727 281.969 1.35312ZM180.469 1.57363C180.872 1.6939 181.178 1.46337 181.198 1.27293C181.025 1.27293 180.852 1.27293 180.68 1.27293C180.948 1.44333 180.565 1.42328 180.469 1.57363C180.872 1.68388 180.565 1.42328 180.469 1.57363ZM244.729 1.48342C245.036 1.45335 245.093 1.53353 245.343 1.52351C245.343 1.48342 245.343 1.4333 245.343 1.39321C245.093 1.33307 244.959 1.50346 244.94 1.39321C244.94 1.35312 245.017 1.3431 245.036 1.303C244.767 1.29298 244.71 1.36314 244.729 1.48342C245.036 1.45335 244.71 1.36314 244.729 1.48342ZM184.784 1.57363C184.784 1.50346 185.071 1.55358 185.09 1.48342C184.899 1.46337 184.899 1.36314 184.573 1.39321C184.592 1.4734 184.63 1.54356 184.784 1.57363C184.784 1.49344 184.63 1.54356 184.784 1.57363ZM150.707 1.52351C150.707 1.61372 150.707 1.6939 150.707 1.78411C150.956 1.74402 151.206 1.68388 151.417 1.61372C151.397 1.53353 151.436 1.48342 151.513 1.44333C151.11 1.40323 151.167 1.57363 150.707 1.52351C150.707 1.61372 151.167 1.57363 150.707 1.52351ZM201.045 1.74402C201.39 1.72397 201.486 1.61372 201.659 1.52351C201.179 1.44333 200.796 1.53353 201.045 1.74402ZM334.052 1.70393C334.34 1.6939 334.493 1.62374 334.455 1.48342C334.359 1.48342 334.244 1.48342 334.148 1.48342C334.072 1.53353 334.014 1.6037 334.052 1.70393C334.34 1.6939 334.014 1.6037 334.052 1.70393ZM127.485 1.57363C127.427 1.70393 127.695 1.70393 128.002 1.70393C128.079 1.53353 127.657 1.49344 127.485 1.57363ZM178.532 1.83423C178.954 1.93446 179.472 1.75404 179.453 1.53353C178.954 1.54356 178.59 1.62374 178.532 1.83423ZM208.716 1.65381C209.118 1.64379 209.444 1.76407 209.425 1.52351C209.214 1.57363 208.773 1.53353 208.716 1.65381ZM308.068 1.57363C308.03 1.71395 308.318 1.6939 308.471 1.74402C308.797 1.62374 308.337 1.4333 308.068 1.57363ZM186.816 1.74402C187.027 1.74402 187.219 1.74402 187.43 1.74402C187.43 1.68388 187.43 1.62374 187.43 1.57363C187.123 1.58365 187.046 1.6939 186.816 1.74402C187.027 1.74402 187.046 1.6939 186.816 1.74402ZM395.858 2.00462C396.05 2.01464 396.088 1.9545 396.261 1.96453C396.299 1.8242 396.165 1.77409 395.858 1.79413C395.896 1.92444 395.666 1.92444 395.858 2.00462C396.03 2.01464 395.666 1.92444 395.858 2.00462ZM153.871 2.39552C154.466 2.28527 154.753 2.55589 154.888 2.26522C154.389 2.22513 154.082 2.21511 153.871 2.39552ZM84.4144 2.35543C84.4528 2.49575 84.7212 2.54587 84.6253 2.74633C85.1048 2.74633 85.1623 2.56591 85.1431 2.35543C84.8555 2.22513 84.7404 2.30531 84.4144 2.35543C84.4336 2.49575 84.7404 2.30531 84.4144 2.35543ZM148.962 2.74633C149.02 2.65612 149.211 2.46568 148.866 2.44564C148.981 2.60601 148.598 2.71626 148.962 2.74633ZM398.293 3.56822C398.428 3.50808 398.428 3.31765 398.293 3.26753C398.197 3.26753 398.082 3.26753 397.986 3.26753C397.795 3.36776 398.006 3.5582 398.293 3.56822C398.447 3.51811 398.006 3.5582 398.293 3.56822Z" fill="url(#paint0_linear)"/>
<defs>
<linearGradient id="paint0_linear" x1="-0.181459" y1="3.99996" x2="400.182" y2="3.99996" gradientUnits="userSpaceOnUse">
<stop stop-color="#0088CC"/>
<stop offset="1" stop-color="#005ECC"/>
</linearGradient>
</defs>
</svg>
